<svg width="20" height="17" viewBox="0 0 20 17" fill="none" xmlns="http://www.w3.org/2000/svg">
<path d="M6.5096 16.4988H6.4296C4.81796 16.4848 3.22963 16.1159 1.7796 15.4187C1.51288 15.2945 1.29326 15.089 1.15291 14.8322C1.01255 14.5754 0.958829 14.2809 0.999603 13.9917C1.04395 13.7005 1.17999 13.4306 1.38831 13.2206C1.59663 13.0107 1.86657 12.8712 2.1596 12.8223C3.05821 12.7035 3.92269 12.4034 4.6996 11.9404C3.35076 10.8953 2.31235 9.50811 1.69442 7.92576C1.07649 6.34341 0.902054 4.62488 1.1896 2.95228C1.22859 2.68734 1.34357 2.43909 1.52085 2.23705C1.69813 2.03502 1.93026 1.88771 2.1896 1.81266C2.44192 1.73414 2.71195 1.73078 2.96617 1.80301C3.22039 1.87524 3.44761 2.01988 3.6196 2.21896C4.20361 2.97783 4.9375 3.61084 5.77651 4.07937C6.61552 4.5479 7.54206 4.84214 8.4996 4.94412C8.54534 3.77662 9.05164 2.67353 9.9096 1.87212C10.338 1.4656 10.8438 1.14763 11.3974 0.936752C11.9511 0.725871 12.5415 0.626291 13.1344 0.643815C13.7273 0.661339 14.3107 0.795617 14.8507 1.03882C15.3907 1.28203 15.8764 1.6293 16.2796 2.0604C16.3846 2.15243 16.5152 2.21108 16.6542 2.22875C16.7933 2.24642 16.9345 2.22229 17.0596 2.1595C17.298 2.04806 17.5635 2.00611 17.8251 2.03855C18.0867 2.07098 18.3336 2.17646 18.5369 2.34268C18.7403 2.50889 18.8918 2.729 18.9737 2.9773C19.0556 3.22561 19.0646 3.49188 18.9996 3.74505C18.769 4.68659 18.3319 5.56625 17.7196 6.32157C17.5846 9.14063 16.3305 11.7925 14.2305 13.699C12.1306 15.6054 9.35527 16.6119 6.5096 16.4988ZM6.5096 14.5169H6.5896C7.75227 14.5565 8.91131 14.367 9.99953 13.9594C11.0878 13.5518 12.0835 12.9342 12.929 12.1424C13.7746 11.3506 14.4531 10.4003 14.9253 9.34669C15.3974 8.29306 15.6538 7.15703 15.6796 6.00446C15.6961 5.68859 15.8276 5.38935 16.0496 5.16214C16.2935 4.85617 16.5015 4.52371 16.6696 4.17117C16.3094 4.17185 15.953 4.09717 15.6239 3.95202C15.2948 3.80687 15.0002 3.59452 14.7596 3.32884C14.5282 3.10147 14.2534 2.92213 13.9511 2.80132C13.6489 2.6805 13.3254 2.62065 12.9996 2.62526C12.6705 2.61682 12.343 2.67289 12.0358 2.79023C11.7286 2.90757 11.4478 3.08387 11.2096 3.30903C10.8882 3.61127 10.6525 3.99187 10.5261 4.41273C10.3998 4.8336 10.3872 5.27996 10.4896 5.70717L10.7496 6.83688L9.5796 6.91615C8.3807 7.01303 7.17487 6.85051 6.04562 6.43985C4.91637 6.02919 3.89069 5.3802 3.0396 4.53783C3.0031 5.84234 3.3324 7.13132 3.9909 8.26147C4.64939 9.39161 5.61127 10.3186 6.7696 10.9395L7.7196 11.4746L7.0896 12.3665C6.4083 13.2519 5.47479 13.9147 4.4096 14.2691C5.09292 14.4389 5.79517 14.5221 6.4996 14.5169H6.5096Z" fill="#6E7191"/>
</svg>
