<svg width="24" height="24" viewBox="0 0 24 24" fill="none" xmlns="http://www.w3.org/2000/svg">
<path d="M11.999 7.4231C10.7726 7.4231 9.59651 7.90587 8.72934 8.76521C7.86217 9.62454 7.375 10.7901 7.375 12.0053C7.375 13.2206 7.86217 14.3861 8.72934 15.2455C9.59651 16.1048 10.7726 16.5876 11.999 16.5876C13.2254 16.5876 14.4015 16.1048 15.2687 15.2455C16.1358 14.3861 16.623 13.2206 16.623 12.0053C16.623 10.7901 16.1358 9.62454 15.2687 8.76521C14.4015 7.90587 13.2254 7.4231 11.999 7.4231ZM11.999 14.9812C11.2023 14.9812 10.4382 14.6676 9.87485 14.1093C9.31149 13.551 8.995 12.7939 8.995 12.0044C8.995 11.2148 9.31149 10.4577 9.87485 9.89938C10.4382 9.34111 11.2023 9.02748 11.999 9.02748C12.7957 9.02748 13.5598 9.34111 14.1231 9.89938C14.6865 10.4577 15.003 11.2148 15.003 12.0044C15.003 12.7939 14.6865 13.551 14.1231 14.1093C13.5598 14.6676 12.7957 14.9812 11.999 14.9812Z" fill="#6E7191"/>
<path d="M16.8055 8.32306C17.4009 8.32306 17.8835 7.84478 17.8835 7.25479C17.8835 6.6648 17.4009 6.18652 16.8055 6.18652C16.2102 6.18652 15.7275 6.6648 15.7275 7.25479C15.7275 7.84478 16.2102 8.32306 16.8055 8.32306Z" fill="#6E7191"/>
<path d="M20.533 6.16853C20.3015 5.57611 19.9477 5.03811 19.4943 4.58898C19.0409 4.13985 18.4979 3.78948 17.9 3.5603C17.2003 3.30002 16.4611 3.15929 15.714 3.14409C14.751 3.10247 14.446 3.09058 12.004 3.09058C9.56195 3.09058 9.24895 3.09058 8.29395 3.14409C7.54734 3.15851 6.80871 3.29928 6.10995 3.5603C5.51189 3.78921 4.96872 4.13949 4.51529 4.58865C4.06186 5.03782 3.70818 5.57595 3.47695 6.16853C3.21426 6.86183 3.07257 7.59438 3.05795 8.33479C3.01495 9.28811 3.00195 9.59035 3.00195 12.0113C3.00195 14.4312 3.00195 14.7394 3.05795 15.6878C3.07295 16.429 3.21395 17.1604 3.47695 17.855C3.70883 18.4474 4.06285 18.9853 4.51639 19.4344C4.96993 19.8835 5.51302 20.2339 6.11095 20.4633C6.80839 20.734 7.54732 20.8848 8.29595 20.9092C9.25895 20.9508 9.56395 20.9637 12.006 20.9637C14.448 20.9637 14.761 20.9637 15.716 20.9092C16.4631 20.8942 17.2022 20.7538 17.902 20.494C18.4997 20.2643 19.0426 19.9136 19.4959 19.4644C19.9493 19.0151 20.3031 18.4771 20.535 17.8848C20.798 17.1911 20.939 16.4598 20.954 15.7185C20.997 14.7652 21.01 14.463 21.01 12.042C21.01 9.62107 21.01 9.31387 20.954 8.36551C20.9423 7.61463 20.7999 6.87138 20.533 6.16853ZM19.315 15.6145C19.3085 16.1856 19.2033 16.7513 19.004 17.2872C18.8538 17.6726 18.6239 18.0225 18.329 18.3145C18.0342 18.6066 17.6809 18.8342 17.292 18.9828C16.7572 19.1794 16.1923 19.2837 15.622 19.291C14.672 19.3346 14.404 19.3455 11.968 19.3455C9.52995 19.3455 9.28095 19.3455 8.31295 19.291C7.74288 19.284 7.17828 19.1798 6.64395 18.9828C6.25364 18.8351 5.89895 18.6079 5.60284 18.3158C5.30673 18.0237 5.07579 17.6733 4.92495 17.2872C4.7284 16.7571 4.62326 16.198 4.61395 15.6333C4.57095 14.6919 4.56095 14.4263 4.56095 12.0123C4.56095 9.59729 4.56095 9.35054 4.61395 8.39029C4.62042 7.81951 4.72561 7.25406 4.92495 6.71852C5.22995 5.93664 5.85495 5.32125 6.64395 5.02198C7.17854 4.8259 7.74298 4.72168 8.31295 4.71379C9.26395 4.67117 9.53095 4.65928 11.968 4.65928C14.405 4.65928 14.655 4.65928 15.622 4.71379C16.1924 4.72059 16.7573 4.82485 17.292 5.02198C17.6809 5.17089 18.0341 5.39875 18.3289 5.69091C18.6238 5.98308 18.8537 6.3331 19.004 6.71852C19.2005 7.24864 19.3056 7.80775 19.315 8.37245C19.358 9.31486 19.369 9.57945 19.369 11.9944C19.369 14.4085 19.369 14.6681 19.326 15.6155H19.315V15.6145Z" fill="#6E7191"/>
</svg>
