<svg width="13" height="21" viewBox="0 0 13 21" fill="none" xmlns="http://www.w3.org/2000/svg">
<path d="M8 20.3476H4C3.73478 20.3476 3.48043 20.2432 3.29289 20.0574C3.10536 19.8716 3 19.6195 3 19.3567V13.2127H1C0.734784 13.2127 0.48043 13.1082 0.292893 12.9224C0.105357 12.7366 0 12.4845 0 12.2217V8.65419C0 8.39137 0.105357 8.13931 0.292893 7.95347C0.48043 7.76763 0.734784 7.66322 1 7.66322H3V5.97857C3.0701 4.46868 3.74062 3.04772 4.86497 2.02637C5.98932 1.00502 7.47602 0.466384 9 0.528231H12C12.2652 0.528231 12.5196 0.632637 12.7071 0.81848C12.8946 1.00432 13 1.25638 13 1.5192V5.0867C13 5.34952 12.8946 5.60158 12.7071 5.78742C12.5196 5.97326 12.2652 6.07767 12 6.07767H9V7.66322H12C12.1544 7.66206 12.307 7.69635 12.4458 7.7634C12.5846 7.83045 12.7058 7.92845 12.8 8.0497C12.8931 8.17277 12.9561 8.31565 12.9839 8.46701C13.0116 8.61837 13.0035 8.77406 12.96 8.92175L11.96 12.4892C11.8995 12.7036 11.768 12.8915 11.5866 13.0228C11.4052 13.154 11.1844 13.2209 10.96 13.2127H9V19.3567C9 19.6195 8.89464 19.8716 8.70711 20.0574C8.51957 20.2432 8.26522 20.3476 8 20.3476ZM5 18.3657H7V12.2217C7 11.9589 7.10536 11.7068 7.29289 11.521C7.48043 11.3351 7.73478 11.2307 8 11.2307H10.24L10.68 9.64516H8C7.73478 9.64516 7.48043 9.54075 7.29289 9.35491C7.10536 9.16907 7 8.91701 7 8.65419V5.97857C7.02568 5.47029 7.24767 4.99127 7.62 4.64076C7.99233 4.29024 8.48645 4.09509 9 4.09573H11V2.51017H9C8.00681 2.45021 7.02982 2.78074 6.28098 3.43005C5.53214 4.07937 5.07186 4.9951 5 5.97857V8.65419C5 8.91701 4.89464 9.16907 4.70711 9.35491C4.51957 9.54075 4.26522 9.64516 4 9.64516H2V11.2307H4C4.26522 11.2307 4.51957 11.3351 4.70711 11.521C4.89464 11.7068 5 11.9589 5 12.2217V18.3657Z" fill="#6E7191"/>
</svg>
