<svg width="93" height="37" viewBox="0 0 93 37" fill="none" xmlns="http://www.w3.org/2000/svg">
<path d="M10.3011 29.4409H6.29262V12.7295H0.251953V8.54797H16.3277V12.7295H10.3011V29.4409ZM22.5646 9.59698C22.5646 9.96608 22.4946 10.3109 22.3543 10.6314C22.2236 10.952 22.0414 11.2337 21.8078 11.4765C21.5741 11.7096 21.2986 11.899 20.9809 12.0447C20.6725 12.1807 20.3408 12.2487 19.9857 12.2487C19.6307 12.2487 19.2943 12.1807 18.9766 12.0447C18.6683 11.899 18.3973 11.7096 18.1637 11.4765C17.9395 11.2337 17.7573 10.952 17.6171 10.6314C17.4863 10.3109 17.4209 9.96608 17.4209 9.59698C17.4209 9.2376 17.4863 8.89764 17.6171 8.57711C17.7573 8.24686 17.9395 7.96518 18.1637 7.73206C18.3973 7.48923 18.6683 7.29984 18.9766 7.16385C19.2943 7.01816 19.6307 6.94531 19.9857 6.94531C20.3408 6.94531 20.6725 7.01816 20.9809 7.16385C21.2986 7.29984 21.5741 7.48923 21.8078 7.73206C22.0414 7.96518 22.2236 8.24686 22.3543 8.57711C22.4946 8.89764 22.5646 9.2376 22.5646 9.59698ZM21.906 29.4409H18.0516V13.8368H21.906V29.4409ZM37.9536 16.9401L35.1504 19.8686C35.0103 19.4607 34.8188 19.0964 34.5758 18.7759C34.3329 18.4456 34.0574 18.1688 33.7489 17.9454C33.45 17.722 33.123 17.552 32.7678 17.4355C32.4129 17.3189 32.0483 17.2606 31.6746 17.2606C31.1514 17.2606 30.6562 17.3723 30.1891 17.5957C29.7312 17.8191 29.3293 18.1348 28.9837 18.5428C28.6473 18.941 28.3809 19.417 28.1848 19.9707C27.9887 20.5243 27.8905 21.1362 27.8905 21.8064C27.8905 22.3502 27.9887 22.8603 28.1848 23.3363C28.3809 23.8121 28.6473 24.2299 28.9837 24.5891C29.3293 24.9486 29.7312 25.2302 30.1891 25.4341C30.6562 25.6382 31.1514 25.7401 31.6746 25.7401C32.0483 25.7401 32.4081 25.6868 32.7539 25.58C33.0996 25.4731 33.4219 25.3225 33.721 25.1282C34.0293 24.9243 34.3002 24.6814 34.5339 24.3997C34.7767 24.1083 34.973 23.7878 35.1225 23.4381L37.9255 26.3667C37.5705 26.8913 37.1593 27.3623 36.6922 27.7799C36.2343 28.1976 35.7344 28.5521 35.1925 28.8435C34.66 29.1349 34.0947 29.3536 33.4967 29.4992C32.9081 29.6545 32.3007 29.7323 31.6746 29.7323C30.6189 29.7323 29.6238 29.5282 28.6894 29.1204C27.7644 28.7027 26.9515 28.1345 26.2507 27.4156C25.5592 26.6969 25.0127 25.8567 24.6108 24.8951C24.2091 23.9335 24.0082 22.904 24.0082 21.8064C24.0082 20.6116 24.2091 19.4947 24.6108 18.4554C25.0127 17.416 25.5592 16.5127 26.2507 15.7454C26.9515 14.9683 27.7644 14.3564 28.6894 13.9096C29.6238 13.4628 30.6189 13.2394 31.6746 13.2394C32.3007 13.2394 32.9127 13.322 33.5107 13.4871C34.118 13.6522 34.6927 13.895 35.2346 14.2156C35.7859 14.5264 36.2903 14.9101 36.7483 15.3666C37.2154 15.8231 37.6172 16.3476 37.9536 16.9401ZM43.6859 29.4409H39.8316V7.63007H43.6859V21.3838L49.3901 13.8659H53.7912L48.8157 20.364L53.7912 29.4409H49.3901L46.3489 23.7733L43.6859 27.4449V29.4409ZM59.8178 9.59698C59.8178 9.96608 59.7476 10.3109 59.6075 10.6314C59.4766 10.952 59.2944 11.2337 59.061 11.4765C58.8273 11.7096 58.5516 11.899 58.2339 12.0447C57.9257 12.1807 57.594 12.2487 57.2389 12.2487C56.8839 12.2487 56.5475 12.1807 56.2298 12.0447C55.9214 11.899 55.6504 11.7096 55.417 11.4765C55.1927 11.2337 55.0105 10.952 54.8703 10.6314C54.7396 10.3109 54.6741 9.96608 54.6741 9.59698C54.6741 9.2376 54.7396 8.89764 54.8703 8.57711C55.0105 8.24686 55.1927 7.96518 55.417 7.73206C55.6504 7.48923 55.9214 7.29984 56.2298 7.16385C56.5475 7.01816 56.8839 6.94531 57.2389 6.94531C57.594 6.94531 57.9257 7.01816 58.2339 7.16385C58.5516 7.29984 58.8273 7.48923 59.061 7.73206C59.2944 7.96518 59.4766 8.24686 59.6075 8.57711C59.7476 8.89764 59.8178 9.2376 59.8178 9.59698ZM59.159 29.4409H55.3048V13.8368H59.159V29.4409ZM69.6146 29.4409C68.6896 29.4409 67.8206 29.2613 67.0077 28.9018C66.1948 28.5328 65.4801 28.0325 64.8633 27.4011C64.256 26.76 63.7747 26.017 63.4197 25.172C63.074 24.3269 62.9012 23.4236 62.9012 22.462V17.8289H61.0371V13.8659H62.9012V7.63007H66.7134V13.8659H72.5158V17.8289H66.7134V22.462C66.7134 22.8798 66.788 23.273 66.9377 23.6422C67.0871 24.0015 67.2926 24.3172 67.5542 24.5891C67.816 24.8612 68.1243 25.0797 68.4792 25.2448C68.8344 25.4003 69.2127 25.4779 69.6146 25.4779H72.5158V29.4409H69.6146ZM86.3911 29.4409H73.8754L80.1963 17.8289H73.8754V13.8659H86.3911L80.0702 25.4779H86.3911V29.4409Z" fill="#5F2EEA"/>
<path d="M91.4221 17.3556C91.4191 17.3538 91.4158 17.3528 91.4128 17.3512L90.1611 16.5995C90.0832 16.6918 89.9768 16.7532 89.8601 16.7732C89.7436 16.7931 89.624 16.7705 89.5216 16.7091C89.4192 16.6476 89.3404 16.5511 89.2986 16.4361C89.2571 16.321 89.255 16.1945 89.2931 16.0781L88.0326 15.3212C87.9988 15.301 87.9586 15.2955 87.9209 15.306C87.8832 15.3165 87.8508 15.3421 87.8313 15.3773L84.0893 22.1153L84.0891 22.1157C84.0794 22.133 84.073 22.1523 84.0706 22.1722C84.0681 22.1922 84.0694 22.2123 84.0744 22.2318C84.0794 22.2513 84.088 22.2694 84.0998 22.2855C84.1115 22.3015 84.1262 22.3148 84.1431 22.3249L85.4039 23.0808C85.482 22.9887 85.5882 22.9275 85.7047 22.9074C85.8213 22.8875 85.9409 22.9102 86.0433 22.9714C86.1456 23.0329 86.2243 23.1292 86.266 23.244C86.3079 23.3587 86.31 23.4851 86.2725 23.6014L87.5171 24.3476C87.5221 24.3516 87.5269 24.3558 87.5324 24.3591C87.5492 24.3693 87.5676 24.3756 87.5869 24.3784C87.6061 24.381 87.6256 24.3796 87.6442 24.3745C87.6629 24.3693 87.6803 24.3603 87.6958 24.348C87.7111 24.3359 87.724 24.3205 87.7337 24.303V24.3032L91.4759 17.5648C91.4857 17.5474 91.492 17.5282 91.4945 17.5082C91.497 17.4883 91.4958 17.468 91.4907 17.4486C91.4857 17.4291 91.4771 17.4109 91.4654 17.395C91.4535 17.379 91.4388 17.3656 91.4221 17.3556ZM90.349 17.8786L87.4318 23.1314C87.422 23.1489 87.4092 23.1642 87.3939 23.1763C87.3786 23.1887 87.361 23.1976 87.3424 23.2028C87.3236 23.208 87.3041 23.2093 87.285 23.2068C87.2658 23.2042 87.2473 23.1976 87.2305 23.1875L85.2702 22.0108C85.2533 22.0007 85.2386 21.9874 85.2269 21.9714C85.2151 21.9555 85.2065 21.9372 85.2015 21.9179C85.1965 21.8984 85.1952 21.8781 85.1977 21.8582C85.2003 21.8384 85.2065 21.8191 85.2162 21.8018L88.1335 16.549C88.153 16.5138 88.1851 16.4882 88.2228 16.4777C88.2605 16.4672 88.3007 16.4726 88.3346 16.4929L90.2952 17.6697C90.3119 17.6797 90.3266 17.6931 90.3383 17.709C90.3502 17.7249 90.3588 17.7431 90.3637 17.7625C90.3687 17.782 90.3701 17.8022 90.3676 17.8221C90.3649 17.842 90.3588 17.8613 90.349 17.8786Z" fill="#5F2EEA"/>
<path d="M88.7779 19.7001L88.157 19.58L88.0697 18.9624C88.0684 18.9533 88.0644 18.9448 88.0583 18.9382C88.0521 18.9316 88.0441 18.9271 88.0355 18.9254C88.0267 18.9236 88.0177 18.9247 88.0097 18.9286C88.0016 18.9324 87.9949 18.9387 87.9903 18.9467L87.6893 19.4893L87.0837 19.3722C87.0751 19.3705 87.0661 19.3717 87.0581 19.3755C87.05 19.3793 87.0433 19.3857 87.0389 19.3936C87.0345 19.4016 87.0326 19.4107 87.0334 19.4199C87.0341 19.429 87.0376 19.4377 87.0433 19.4447L87.4438 19.9318L87.1424 20.4742C87.138 20.4824 87.1361 20.4915 87.1371 20.5007C87.1378 20.5101 87.1415 20.5188 87.1472 20.5258C87.153 20.5327 87.1608 20.5375 87.1694 20.5397C87.178 20.5419 87.187 20.5413 87.1953 20.5379L87.7529 20.3078L88.1635 20.8072C88.1692 20.814 88.1769 20.819 88.1855 20.8212C88.1939 20.8234 88.2029 20.8228 88.2111 20.8196C88.2194 20.8164 88.2263 20.8106 88.2312 20.8031C88.2362 20.7955 88.2389 20.7865 88.2387 20.7774L88.228 20.1078L88.791 19.7825C88.7986 19.778 88.8049 19.7712 88.8087 19.7629C88.8126 19.7547 88.8139 19.7454 88.8126 19.7364C88.811 19.7274 88.8068 19.7191 88.8007 19.7126C88.7946 19.7061 88.7866 19.7018 88.7779 19.7001Z" fill="#5F2EEA"/>
</svg>
