<svg width="121" height="32" viewBox="0 0 121 32" fill="none" xmlns="http://www.w3.org/2000/svg">
<path d="M14.3997 31.5806H8.79648V8.54596H0.352539V2.78228H22.824V8.54596H14.3997V31.5806ZM31.5423 4.22821C31.5423 4.73698 31.4444 5.21226 31.2483 5.65407C31.0656 6.09591 30.811 6.48417 30.4844 6.81887C30.1578 7.1402 29.7726 7.40126 29.3285 7.60208C28.8973 7.78952 28.4338 7.88324 27.9373 7.88324C27.4411 7.88324 26.9709 7.78952 26.5268 7.60208C26.0958 7.40126 25.717 7.1402 25.3905 6.81887C25.0771 6.48417 24.8224 6.09591 24.6264 5.65407C24.4436 5.21226 24.3522 4.73698 24.3522 4.22821C24.3522 3.73285 24.4436 3.26426 24.6264 2.82245C24.8224 2.36723 25.0771 1.97897 25.3905 1.65765C25.717 1.32294 26.0958 1.06188 26.5268 0.87444C26.9709 0.673621 27.4411 0.573212 27.9373 0.573212C28.4338 0.573212 28.8973 0.673621 29.3285 0.87444C29.7726 1.06188 30.1578 1.32294 30.4844 1.65765C30.811 1.97897 31.0656 2.36723 31.2483 2.82245C31.4444 3.26426 31.5423 3.73285 31.5423 4.22821ZM30.6216 31.5806H25.2338V10.0722H30.6216V31.5806ZM53.0538 14.3498L49.1353 18.3864C48.9395 17.8241 48.6718 17.322 48.3321 16.8802C47.9926 16.425 47.6074 16.0435 47.1763 15.7355C46.7584 15.4276 46.3013 15.1933 45.8048 15.0326C45.3086 14.872 44.7991 14.7916 44.2767 14.7916C43.5453 14.7916 42.8531 14.9456 42.2001 15.2535C41.56 15.5614 40.9983 15.9966 40.5152 16.5589C40.045 17.1078 39.6726 17.7639 39.3985 18.5271C39.1243 19.2902 38.9871 20.1336 38.9871 21.0574C38.9871 21.807 39.1243 22.51 39.3985 23.1662C39.6726 23.822 40.045 24.3979 40.5152 24.893C40.9983 25.3885 41.56 25.7768 42.2001 26.0578C42.8531 26.3391 43.5453 26.4795 44.2767 26.4795C44.7991 26.4795 45.302 26.406 45.7853 26.2588C46.2687 26.1116 46.7191 25.904 47.1372 25.6361C47.5681 25.3551 47.9469 25.0203 48.2735 24.632C48.6129 24.2303 48.8874 23.7886 49.0963 23.3066L53.0145 27.3432C52.5183 28.0663 51.9435 28.7156 51.2905 29.2911C50.6504 29.8669 49.9517 30.3555 49.1942 30.7572C48.4498 31.1589 47.6596 31.4603 46.8237 31.661C46.0009 31.8751 45.1519 31.9823 44.2767 31.9823C42.8009 31.9823 41.41 31.701 40.1038 31.1389C38.8108 30.5631 37.6745 29.78 36.6949 28.7891C35.7282 27.7984 34.9643 26.6402 34.4025 25.3148C33.8411 23.9893 33.5602 22.5704 33.5602 21.0574C33.5602 19.4105 33.8411 17.871 34.4025 16.4384C34.9643 15.0058 35.7282 13.7607 36.6949 12.703C37.6745 11.632 38.8108 10.7885 40.1038 10.1726C41.41 9.55678 42.8009 9.24886 44.2767 9.24886C45.1519 9.24886 46.0073 9.36265 46.8432 9.59025C47.6922 9.81786 48.4955 10.1526 49.253 10.5944C50.0237 11.0228 50.7288 11.5516 51.3689 12.1809C52.0218 12.8102 52.5836 13.5331 53.0538 14.3498ZM61.0667 31.5806H55.679V1.51707H61.0667V20.475L69.0403 10.1124H75.1923L68.2373 19.0692L75.1923 31.5806H69.0403L64.7891 23.7686L61.0667 28.8294V31.5806ZM83.6166 4.22821C83.6166 4.73698 83.5185 5.21226 83.3227 5.65407C83.1397 6.09591 82.8851 6.48417 82.5587 6.81887C82.2321 7.1402 81.8467 7.40126 81.4026 7.60208C80.9717 7.78952 80.5081 7.88324 80.0117 7.88324C79.5155 7.88324 79.0452 7.78952 78.6012 7.60208C78.17 7.40126 77.7913 7.1402 77.4649 6.81887C77.1514 6.48417 76.8968 6.09591 76.7007 5.65407C76.518 5.21226 76.4265 4.73698 76.4265 4.22821C76.4265 3.73285 76.518 3.26426 76.7007 2.82245C76.8968 2.36723 77.1514 1.97897 77.4649 1.65765C77.7913 1.32294 78.17 1.06188 78.6012 0.87444C79.0452 0.673621 79.5155 0.573212 80.0117 0.573212C80.5081 0.573212 80.9717 0.673621 81.4026 0.87444C81.8467 1.06188 82.2321 1.32294 82.5587 1.65765C82.8851 1.97897 83.1397 2.36723 83.3227 2.82245C83.5185 3.26426 83.6166 3.73285 83.6166 4.22821ZM82.6957 31.5806H77.3082V10.0722H82.6957V31.5806ZM97.3111 31.5806C96.018 31.5806 94.8033 31.333 93.667 30.8376C92.5307 30.3289 91.5317 29.6393 90.6695 28.769C89.8205 27.8853 89.1478 26.8612 88.6516 25.6964C88.1683 24.5317 87.9267 23.2865 87.9267 21.9611V15.5749H85.3211V10.1124H87.9267V1.51707H93.2556V10.1124H101.366V15.5749H93.2556V21.9611C93.2556 22.5369 93.36 23.079 93.5691 23.5879C93.778 24.0831 94.0653 24.5182 94.431 24.893C94.7969 25.2681 95.2278 25.5692 95.724 25.7968C96.2205 26.0112 96.7493 26.1181 97.3111 26.1181H101.366V31.5806H97.3111ZM120.762 31.5806H103.267L112.103 15.5749H103.267V10.1124H120.762L111.926 26.1181H120.762V31.5806Z" fill="#5F2EEA"/>
</svg>
